<svg width="1025" height="1025" version="1.1" xmlns="http://www.w3.org/2000/svg" desc="Created with imagetracer.js version 1.2.6" ><path fill="rgb(0,0,0)" stroke="rgb(0,0,0)" stroke-width="1" opacity="0" d="M 0 0 L 1025 0 L 1025 613.5 L 1024 613.5 L 1023 599.5 L 1012 565.5 L 1018 552.5 L 1019 535.5 L 1018 534.5 L 1017 523.5 L 1012 507.5 Q 1006.3 491.7 994.5 482 Q 990.1 477.9 980.5 479 Q 965.1 484.1 956 495.5 L 951.5 503 Q 935 493 915.5 486 L 889 479 L 886 452.5 L 878 418 L 129.5 418 L 128 419.5 L 120 457.5 L 117 484 Q 93.1 490.8 73.5 503 Q 69.2 493.8 61.5 488 L 47.5 480 L 37.5 479 Q 28.2 482.2 23 489.5 Q 13.6 502.1 9 519.5 L 6 536.5 L 6 545.5 L 8 555.5 L 13 567.5 Q 2.4 586.9 0.5 615 L 0 0 Z M 243 18 L 234 21 Q 226 26 224 36 L 224 43 L 229 53 L 241 59 Q 252 60 258 54 L 263 55 L 286 67 L 315 89 L 334 110 L 341 119 L 341 121 Q 302 143 271 174 Q 220 223 183 286 Q 151 339 132 406 L 874 406 L 873 399 L 864 372 L 853 344 L 825 288 Q 793 232 750 188 Q 713 149 666 121 L 684 99 Q 710 70 749 54 L 761 59 L 768 59 L 777 55 Q 782 51 784 43 Q 785 32 781 28 Q 776 20 766 18 Q 757 18 752 22 Q 746 26 744 33 L 744 38 Q 705 53 678 81 L 658 103 L 652 112 Q 623 96 588 85 L 554 77 L 533 75 L 532 74 L 520 74 L 519 73 L 476 74 L 475 75 L 467 75 L 439 80 L 410 88 L 391 95 L 357 111 L 338 89 Q 309 57 267 39 L 261 27 Q 256 18 243 18 Z " /><path fill="rgb(0,0,0)" stroke="rgb(0,0,0)" stroke-width="1" opacity="0" d="M 0.5 638 L 1 646.5 L 5 665.5 L 13 686.5 Q 25.4 712.1 45.5 730 Q 63.9 747.1 89.5 757 L 101.5 761 L 121.5 765 L 144.5 766 L 145.5 765 L 163.5 764 L 180.5 760 L 203.5 750 Q 230.8 776.7 265.5 796 Q 300.6 815.9 342.5 829 L 380.5 839 L 412.5 845 L 433.5 847 L 434.5 848 L 454.5 849 L 455.5 850 L 470.5 850 L 471.5 851 L 535.5 851 L 536.5 850 L 550.5 850 L 551.5 849 L 562.5 849 L 563.5 848 L 580.5 847 L 581.5 846 L 606.5 843 L 650.5 833 L 687.5 821 Q 722.1 808.1 751.5 790 L 784.5 767 L 809.5 744 L 811.5 744 L 826.5 753 L 848.5 761 L 868.5 765 L 891.5 766 L 892.5 765 L 903.5 765 L 904.5 764 L 915.5 763 L 940.5 755 Q 970.9 741.9 991 718.5 Q 1006.5 701 1016 677.5 L 1023 653.5 L 1024.5 639 L 1025 1025 L 0 1025 L 0.5 638 Z M 481 903 L 480 904 L 452 904 L 451 905 L 434 905 L 433 906 L 407 907 L 406 908 L 378 910 L 349 915 L 343 915 L 298 925 L 278 932 L 263 940 Q 255 944 253 953 L 253 957 L 256 963 Q 264 971 277 976 L 293 982 L 320 989 L 359 996 L 391 999 L 392 1000 L 425 1002 L 426 1003 L 442 1003 L 443 1004 L 463 1004 L 464 1005 L 561 1005 L 562 1004 L 582 1004 L 583 1003 L 612 1002 L 613 1001 L 623 1001 L 624 1000 L 651 998 L 652 997 L 666 996 L 685 992 L 690 992 L 725 984 L 748 976 L 765 966 L 771 956 L 769 948 Q 758 936 742 930 L 707 920 L 669 913 L 648 911 L 647 910 L 639 910 L 638 909 L 629 909 L 628 908 L 619 908 L 618 907 L 592 906 L 591 905 L 574 905 L 573 904 L 481 903 Z " /><path fill="rgb(218,35,51)" stroke="rgb(218,35,51)" stroke-width="1" opacity="0.9725490196078431" d="M 282.5 163 L 281.5 165 L 282.5 163 Z " /><path fill="rgb(218,35,51)" stroke="rgb(218,35,51)" stroke-width="1" opacity="0.9725490196078431" d="M 725.5 164 L 727.5 167 L 725.5 164 Z " /><path fill="rgb(218,35,51)" stroke="rgb(218,35,51)" stroke-width="1" opacity="0.9725490196078431" d="M 270.5 174 L 253.5 192 L 270.5 174 Z " /><path fill="rgb(218,35,51)" stroke="rgb(218,35,51)" stroke-width="1" opacity="0.9725490196078431" d="M 739.5 177 L 749.5 188 L 739.5 177 Z " /><path fill="rgb(218,35,51)" stroke="rgb(218,35,51)" stroke-width="1" opacity="0.9725490196078431" d="M 761.5 200 L 762.5 202 L 761.5 200 Z " /><path fill="rgb(218,35,51)" stroke="rgb(218,35,51)" stroke-width="1" opacity="0.9725490196078431" d="M 244.5 201 L 243.5 203 L 244.5 201 Z " /><path fill="rgb(218,35,51)" stroke="rgb(218,35,51)" stroke-width="1" opacity="0.9725490196078431" d="M 768.5 208 L 769.5 210 L 768.5 208 Z " /><path fill="rgb(218,35,51)" stroke="rgb(218,35,51)" stroke-width="1" opacity="0.9725490196078431" d="M 778.5 220 L 779.5 222 L 778.5 220 Z " /><path fill="rgb(218,35,51)" stroke="rgb(218,35,51)" stroke-width="1" opacity="0.9725490196078431" d="M 222.5 228 L 220.5 231 L 222.5 228 Z " /><path fill="rgb(218,35,51)" stroke="rgb(218,35,51)" stroke-width="1" opacity="0.9725490196078431" d="M 786.5 230 L 788 232.5 L 786 231.5 L 786.5 230 Z " /><path fill="rgb(218,35,51)" stroke="rgb(218,35,51)" stroke-width="1" opacity="0.9725490196078431" d="M 789.5 234 L 791 236.5 L 789 235.5 L 789.5 234 Z " /><path fill="rgb(218,35,51)" stroke="rgb(218,35,51)" stroke-width="1" opacity="0.9725490196078431" d="M 215.5 237 L 214.5 239 L 215.5 237 Z " /><path fill="rgb(218,35,51)" stroke="rgb(218,35,51)" stroke-width="1" opacity="0.9725490196078431" d="M 210.5 244 L 209.5 246 L 210.5 244 Z " /><path fill="rgb(218,35,51)" stroke="rgb(218,35,51)" stroke-width="1" opacity="0.9725490196078431" d="M 796.5 245 Q 798.8 244.3 798 246.5 L 799.5 249 Q 797.3 249.8 798 247.5 L 796.5 245 Z " /><path fill="rgb(218,35,51)" stroke="rgb(218,35,51)" stroke-width="1" opacity="0.9725490196078431" d="M 208.5 247 L 208 248.5 Q 190.4 272.6 177 300 L 337.5 300 L 339 301.5 Q 342.9 319.1 354.5 329 L 372.5 340 L 386.5 343 L 620.5 343 L 630.5 341 L 644.5 335 L 659 321.5 Q 666.6 313.2 668 300 L 829.5 300 L 830 298.5 L 800 250.5 L 803 252.5 Q 825.2 284.8 843 321.5 L 864 371.5 L 873 398.5 L 874 406 L 132 405.5 Q 158.5 314.5 208.5 247 Z " /><path fill="rgb(218,35,51)" stroke="rgb(218,35,51)" stroke-width="1" opacity="0.9725490196078431" d="M 129.5 418 L 877.5 418 L 878 419.5 L 881 431.5 L 880 431.5 L 878 420.5 L 876.5 419 L 129.5 419 L 129 422.5 L 127.5 427 L 127 423.5 L 129.5 418 Z " /><path fill="rgb(218,35,51)" stroke="rgb(218,35,51)" stroke-width="1" opacity="0.9725490196078431" d="M 126.5 428 L 127 431.5 L 122.5 451 L 122 446.5 L 126.5 428 Z " /><path fill="rgb(218,35,51)" stroke="rgb(218,35,51)" stroke-width="1" opacity="0.9725490196078431" d="M 881.5 433 L 884 445.5 L 883 445.5 L 881.5 433 Z " /><path fill="rgb(218,35,51)" stroke="rgb(218,35,51)" stroke-width="1" opacity="0.9725490196078431" d="M 884.5 447 L 886 456.5 L 885 456.5 L 884.5 447 Z " /><path fill="rgb(218,35,51)" stroke="rgb(218,35,51)" stroke-width="1" opacity="0.9725490196078431" d="M 121.5 452 L 122 455.5 L 121 455.5 L 121.5 452 Z " /><path fill="rgb(218,35,51)" stroke="rgb(218,35,51)" stroke-width="1" opacity="0.9725490196078431" d="M 120.5 460 L 121 462.5 L 119.5 466 L 119 463.5 L 120.5 460 Z " /><path fill="rgb(218,35,51)" stroke="rgb(218,35,51)" stroke-width="1" opacity="0.9725490196078431" d="M 886.5 461 L 888 466.5 L 887 466.5 L 886.5 461 Z " /><path fill="rgb(218,35,51)" stroke="rgb(218,35,51)" stroke-width="1" opacity="0.9725490196078431" d="M 176.5 472 L 180 472.5 L 176.5 473 L 176.5 472 Z " /><path fill="rgb(218,35,51)" stroke="rgb(218,35,51)" stroke-width="1" opacity="0.9725490196078431" d="M 198.5 472 L 202 472.5 L 198.5 473 L 198.5 472 Z " /><path fill="rgb(218,35,51)" stroke="rgb(218,35,51)" stroke-width="1" opacity="0.9725490196078431" d="M 823.5 472 L 827 472.5 L 823.5 473 L 823.5 472 Z " /><path fill="rgb(218,35,51)" stroke="rgb(218,35,51)" stroke-width="1" opacity="0.9725490196078431" d="M 845.5 472 L 849 472.5 L 845.5 473 L 845.5 472 Z " /><path fill="rgb(218,35,51)" stroke="rgb(218,35,51)" stroke-width="1" opacity="0.9725490196078431" d="M 118.5 474 L 119 476.5 L 118 476.5 L 118.5 474 Z " /><path fill="rgb(218,35,51)" stroke="rgb(218,35,51)" stroke-width="1" opacity="0.9725490196078431" d="M 117.5 478 L 118 480.5 L 117 480.5 L 117.5 478 Z " /><path fill="rgb(218,35,51)" stroke="rgb(218,35,51)" stroke-width="1" opacity="0.9725490196078431" d="M 965.5 487 L 967 487.5 L 963.5 490 L 965.5 487 Z " /><path fill="rgb(218,35,51)" stroke="rgb(218,35,51)" stroke-width="1" opacity="0.9725490196078431" d="M 60.5 488 L 63 489.5 L 61.5 490 L 60.5 488 Z " /><path fill="rgb(218,35,51)" stroke="rgb(218,35,51)" stroke-width="1" opacity="0.9725490196078431" d="M 8.5 552 L 9 554.5 L 8 554.5 L 8.5 552 Z " /><path fill="rgb(218,35,51)" stroke="rgb(218,35,51)" stroke-width="1" opacity="0.9725490196078431" d="M 1016.5 553 L 1017 555.5 L 1016 555.5 L 1016.5 553 Z " /><path fill="rgb(218,35,51)" stroke="rgb(218,35,51)" stroke-width="1" opacity="0.9725490196078431" d="M 13.5 567 L 14 568.5 L 11.5 573 L 11 571.5 L 13.5 567 Z " /><path fill="rgb(218,35,51)" stroke="rgb(218,35,51)" stroke-width="1" opacity="0.9725490196078431" d="M 1012.5 569 L 1014 572.5 L 1013 572.5 L 1012.5 569 Z " /><path fill="rgb(218,35,51)" stroke="rgb(218,35,51)" stroke-width="1" opacity="0.9725490196078431" d="M 10.5 574 L 11 575.5 L 8.5 580 L 8 578.5 L 10.5 574 Z " /><path fill="rgb(218,35,51)" stroke="rgb(218,35,51)" stroke-width="1" opacity="0.9725490196078431" d="M 1015.5 576 L 1017 579.5 L 1016 579.5 L 1015.5 576 Z " /><path fill="rgb(228,36,49)" stroke="rgb(228,36,49)" stroke-width="1" opacity="0.9921568627450981" d="M 242.5 18 Q 255.9 18.1 261 26.5 L 266.5 39 Q 309.3 56.7 338 88.5 L 356.5 111 L 390.5 95 L 409.5 88 L 438.5 80 L 466.5 75 L 474.5 75 L 475.5 74 L 518.5 73 L 519.5 74 L 531.5 74 L 532.5 75 L 553.5 77 L 587.5 85 Q 623.1 95.7 652 112 L 658 102.5 L 677.5 81 Q 705.2 53.4 744 38 L 744 32.5 Q 746.3 25.8 751.5 22 Q 756.5 18 765.5 18 Q 776.4 19.6 781 27.5 Q 785.2 32.3 784 42.5 Q 782.3 50.8 776.5 55 L 767.5 59 L 760.5 59 L 748.5 54 Q 710.2 70.2 684 98.5 L 666 120.5 Q 720.1 153.4 761 199.5 L 786 229.5 L 787.5 233 Q 790.1 232.2 789 235.5 L 792 237 Q 790.5 240.7 793.5 240 L 797 244.5 Q 794.5 246 798 247.5 L 800 250.5 Q 817 273.8 830 300 L 669.5 300 Q 668.3 299.8 669 293.5 L 670 292.5 L 670 284.5 L 668 273.5 L 663 261.5 L 648.5 245 L 636.5 238 L 619.5 234 L 387.5 234 L 376.5 236 L 362.5 242 L 347 256.5 Q 341 265 338 276.5 L 337 294.5 L 338 300 L 177.5 300 L 177 298.5 L 192 272.5 L 217 234.5 L 245 200.5 L 280.5 165 L 316.5 136 L 341 121 L 341 118.5 L 334 109.5 L 314.5 89 L 285.5 67 L 262.5 55 L 257.5 54 Q 252.5 60 240.5 59 L 229 52.5 L 224 42.5 L 224 35.5 Q 226 25.5 233.5 21 L 242.5 18 Z " /><path fill="rgb(253,211,154)" stroke="rgb(253,211,154)" stroke-width="1" opacity="0.996078431372549" d="M 470 281 L 486 281 L 486 297 L 470 297 L 470 281 Z " /><path fill="rgb(253,211,154)" stroke="rgb(253,211,154)" stroke-width="1" opacity="0.996078431372549" d="M 521 281 L 537 281 L 537 297 L 521 297 L 521 281 Z " /><path fill="rgb(253,211,154)" stroke="rgb(253,211,154)" stroke-width="1" opacity="0.996078431372549" d="M 487 296 L 503 296 L 503 313 L 487 313 L 487 296 Z " /><path fill="rgb(253,211,154)" stroke="rgb(253,211,154)" stroke-width="1" opacity="0.996078431372549" d="M 504 296 L 520 296 L 520 313 L 504 313 L 504 296 Z " /><path fill="rgb(253,211,154)" stroke="rgb(253,211,154)" stroke-width="1" opacity="0.996078431372549" d="M 511.5 457 L 515 464.5 L 537 539.5 Q 543.3 554.7 555.5 564 L 566.5 571 L 628 598.5 L 562.5 628 L 545 643.5 L 536 659.5 L 513 739 Q 510 740.3 511 736.5 L 487 657.5 Q 480.7 642.3 468.5 633 L 457.5 626 L 396 598.5 L 462.5 568 L 478 554.5 Q 484.5 547 488 536.5 L 511.5 457 Z " /><path fill="rgb(209,35,54)" stroke="rgb(209,35,54)" stroke-width="1" opacity="0.996078431372549" d="M 351.5 325 L 354.5 329 L 351.5 325 Z " /><path fill="rgb(209,35,54)" stroke="rgb(209,35,54)" stroke-width="1" opacity="0.996078431372549" d="M 129 419 L 876.5 419 L 878 420.5 L 884 446.5 L 885 456.5 L 887 460.5 L 886 463.5 L 888 467.5 L 887 469.5 L 889 475.5 L 889 477.5 L 888.5 479 L 883.5 477 L 860.5 474 L 859.5 473 L 823.5 472 L 822.5 473 L 813.5 473 L 812.5 474 L 801.5 475 L 778.5 482 Q 757.8 490.8 744 506.5 Q 731.9 520.4 726 540.5 L 723 555.5 L 723 563.5 L 722 564.5 L 722 583.5 L 723 584.5 Q 721.7 593.4 724 597 L 625.5 597 L 565.5 570 L 548 556.5 L 537 538.5 L 513 456 Q 510 454.8 511 458.5 L 486 540.5 Q 480.5 552.5 471.5 561 Q 461.3 569.8 447.5 575 L 398.5 597 L 302.5 597 L 301.5 598 L 301 595.5 L 303 585.5 L 303 562.5 L 302 561.5 L 301 548.5 L 294 526.5 Q 285.7 508.8 271.5 497 Q 239.2 469.3 176.5 472 L 175.5 473 L 165.5 473 L 164.5 474 L 141.5 477 L 118.5 484 L 117 481.5 L 119 474.5 L 119 472.5 L 118 470.5 L 120 467.5 L 120 465.5 L 121 460.5 L 121 458.5 L 129 419 Z " /><path fill="rgb(209,35,54)" stroke="rgb(209,35,54)" stroke-width="1" opacity="0.996078431372549" d="M 963.5 488 L 966 489 L 1016.5 552 L 1018 552.5 L 1016 553 L 1016 558.5 L 1013.5 563 L 1013 560.5 L 1001.5 547 Q 1000.3 549.3 999 546.5 L 1000 544.5 Q 998 546.2 996 542.5 L 996.5 541 L 993 538.5 Q 995.3 537.3 992.5 536 L 991 535.5 Q 993.3 534.3 990.5 533 L 989.5 534 L 979 523.5 L 988 530.5 L 962 498.5 L 959 492.5 L 963.5 488 Z " /><path fill="rgb(209,35,54)" stroke="rgb(209,35,54)" stroke-width="1" opacity="0.996078431372549" d="M 60.5 490 Q 66.3 489.3 67 493.5 L 43 524.5 L 46 523.5 Q 33.5 534 24.5 548 L 23 548.5 Q 25.3 549.8 22.5 551 L 21 551.5 L 21.5 553 Q 19.8 550.2 18 554.5 L 12.5 562 L 10 560.5 L 9 553.5 L 60.5 490 Z " /><path fill="rgb(209,35,54)" stroke="rgb(209,35,54)" stroke-width="1" opacity="0.996078431372549" d="M 972.5 517 L 974.5 520 L 972.5 517 Z " /><path fill="rgb(209,35,54)" stroke="rgb(209,35,54)" stroke-width="1" opacity="0.996078431372549" d="M 51.5 518 L 50.5 520 L 51.5 518 Z " /><path fill="rgb(209,35,54)" stroke="rgb(209,35,54)" stroke-width="1" opacity="0.996078431372549" d="M 1001.5 549 L 1002.5 551 L 1001.5 549 Z " /><path fill="rgb(209,35,54)" stroke="rgb(209,35,54)" stroke-width="1" opacity="0.996078431372549" d="M 20.5 554 L 20 555.5 L 18.5 558 L 19 556.5 L 20.5 554 Z " /><path fill="rgb(209,35,54)" stroke="rgb(209,35,54)" stroke-width="1" opacity="0.996078431372549" d="M 1004.5 554 L 1005.5 556 L 1004.5 554 Z " /><path fill="rgb(209,35,54)" stroke="rgb(209,35,54)" stroke-width="1" opacity="0.996078431372549" d="M 14.5 565 L 13.5 567 L 14.5 565 Z " /><path fill="rgb(209,35,54)" stroke="rgb(209,35,54)" stroke-width="1" opacity="0.996078431372549" d="M 1010.5 565 L 1011.5 567 L 1010.5 565 Z " /><path fill="rgb(209,35,54)" stroke="rgb(209,35,54)" stroke-width="1" opacity="0.996078431372549" d="M 12.5 568 L 14.5 568 L 268 686.5 Q 255.3 707.8 237.5 724 L 1 613.5 L 2 609.5 L 2 605.5 L 2 600.5 L 5 587.5 L 8 582.5 Q 5.5 581 9 579.5 L 13 569.5 L 12.5 568 Z " /><path fill="rgb(209,35,54)" stroke="rgb(209,35,54)" stroke-width="1" opacity="0.996078431372549" d="M 1011.5 568 L 1012.5 571 L 1014 570.5 L 1013 573 L 1015 573.5 L 1014.5 575 L 1016 575.5 L 1015 577.5 L 1020 587.5 L 1024 605.5 L 1024 607.5 L 1024 614.5 L 1022.5 615 L 792.5 723 L 787.5 724 Q 769.9 707.6 757 686.5 L 1011.5 568 Z " /><path fill="rgb(209,35,54)" stroke="rgb(209,35,54)" stroke-width="1" opacity="0.996078431372549" d="M 553.5 635 L 548.5 641 L 553.5 635 Z " /><path fill="rgb(209,35,54)" stroke="rgb(209,35,54)" stroke-width="1" opacity="0.996078431372549" d="M 471.5 636 L 475.5 641 L 471.5 636 Z " /><path fill="rgb(209,35,54)" stroke="rgb(209,35,54)" stroke-width="1" opacity="0.996078431372549" d="M 744.5 662 L 749 670.5 L 747 669.5 L 744.5 662 Z " /><path fill="rgb(209,35,54)" stroke="rgb(209,35,54)" stroke-width="1" opacity="0.996078431372549" d="M 277.5 669 L 277 670.5 L 275.5 673 L 276 671.5 L 277.5 669 Z " /><path fill="rgb(209,35,54)" stroke="rgb(209,35,54)" stroke-width="1" opacity="0.996078431372549" d="M 751.5 676 L 752.5 678 L 751.5 676 Z " /><path fill="rgb(209,35,54)" stroke="rgb(209,35,54)" stroke-width="1" opacity="0.996078431372549" d="M 272.5 678 L 271.5 680 L 272.5 678 Z " /><path fill="rgb(209,35,54)" stroke="rgb(209,35,54)" stroke-width="1" opacity="0.996078431372549" d="M 270.5 681 L 270 682.5 L 268.5 685 L 269 683.5 L 270.5 681 Z " /><path fill="rgb(209,35,54)" stroke="rgb(209,35,54)" stroke-width="1" opacity="0.996078431372549" d="M 755.5 683 L 756.5 685 L 755.5 683 Z " /><path fill="rgb(199,33,56)" stroke="rgb(199,33,56)" stroke-width="1" opacity="0.996078431372549" d="M 958.5 493 L 992 534.5 L 990 535 L 990 533.5 L 979.5 523 L 961 510 L 959.5 507 L 958 507.5 L 959 505.5 Q 954 504.5 955 497.5 L 958.5 493 Z " /><path fill="rgb(199,33,56)" stroke="rgb(199,33,56)" stroke-width="1" opacity="0.996078431372549" d="M 67.5 494 L 71 498.5 L 71 500.5 L 67 505.5 L 67 508 Q 51.4 516.2 39.5 529 L 43 524.5 L 67.5 494 Z " /><path fill="rgb(199,33,56)" stroke="rgb(199,33,56)" stroke-width="1" opacity="0.996078431372549" d="M 992.5 536 L 995.5 540 L 992.5 536 Z " /><path fill="rgb(199,33,56)" stroke="rgb(199,33,56)" stroke-width="1" opacity="0.996078431372549" d="M 996.5 541 L 1013 560.5 L 1013 564.5 Q 1011.5 567.5 1010 564.5 Q 1004.6 550.6 996.5 541 Z " /><path fill="rgb(199,33,56)" stroke="rgb(199,33,56)" stroke-width="1" opacity="0.996078431372549" d="M 23.5 548 L 22.5 550 L 23.5 548 Z " /><path fill="rgb(199,33,56)" stroke="rgb(199,33,56)" stroke-width="1" opacity="0.996078431372549" d="M 21.5 551 L 21 552.5 L 13.5 566 L 11 562.5 L 14 560.5 L 21.5 551 Z " /><path fill="rgb(199,33,56)" stroke="rgb(199,33,56)" stroke-width="1" opacity="0.996078431372549" d="M 302.5 597 L 397 597.5 Q 394.8 598.8 397.5 600 L 463.5 630 L 479 644.5 L 488 661.5 L 511 741 Q 514.3 742.3 513 737.5 L 537 658.5 Q 544 642 557.5 632 L 628 598.5 L 627.5 597 L 723.5 597 Q 724.6 597.1 724 602.5 L 729 624.5 L 736 645.5 L 747 669.5 Q 763.2 700.8 787.5 724 L 792.5 723 L 1024.5 614 L 1025 638.5 L 1024 639.5 L 1023 652.5 L 1021 655.5 L 1022 657.5 L 1020 660.5 L 1020.5 662 Q 1017.5 661.2 1019 665 L 1016.5 665 L 829.5 753 L 824.5 750 L 822.5 750 L 809.5 743 L 214.5 743 L 203.5 750 L 194.5 752 L 5 663.5 L 5 661.5 L 1 646.5 L 1 638.5 L 0 637.5 L 0 615.5 Q 1.3 612.8 2.5 615 L 237.5 724 Q 261.3 701.8 277 671.5 L 291 640.5 L 299 613.5 L 301 598.5 L 302.5 597 Z " /><path fill="rgb(199,33,56)" stroke="rgb(199,33,56)" stroke-width="1" opacity="0.996078431372549" d="M 803.5 749 L 800.5 753 L 803.5 749 Z " /><path fill="rgb(199,33,56)" stroke="rgb(199,33,56)" stroke-width="1" opacity="0.996078431372549" d="M 206.5 752 L 207.5 754 L 206.5 752 Z " /><path fill="rgb(228,52,68)" stroke="rgb(228,52,68)" stroke-width="1" opacity="0.996078431372549" d="M 511.5 456 Q 513.8 455.3 513 457.5 L 511.5 456 Z " /><path fill="rgb(228,52,68)" stroke="rgb(228,52,68)" stroke-width="1" opacity="0.996078431372549" d="M 180.5 472 L 210.5 473 L 227.5 476 L 243.5 481 Q 266.3 489.7 281 506.5 Q 293.3 520.2 299 540.5 L 303 562.5 L 303 585.5 L 302 586.5 L 302 594.5 L 299 611.5 L 290 641.5 L 282 660.5 L 268 686 L 14 568 Q 26 538.9 49.5 520 L 76.5 501 L 112.5 485 L 152.5 475 L 166.5 474 L 167.5 473 L 179.5 473 L 180.5 472 Z " /><path fill="rgb(228,52,68)" stroke="rgb(228,52,68)" stroke-width="1" opacity="0.996078431372549" d="M 827.5 472 L 844.5 472 L 845.5 473 L 857.5 473 L 858.5 474 L 872.5 475 L 896.5 480 L 915.5 486 L 950.5 502 L 975.5 520 L 993 537.5 Q 1005.2 550.7 1011 569 L 1008.5 569 L 772.5 680 L 757 686 Q 740.5 659.7 730 626.5 L 723 593.5 L 722 564.5 L 723 563.5 L 723 555.5 L 725 544.5 L 729 531.5 Q 737.3 511.3 752.5 498 Q 764.9 487.4 781.5 481 L 807.5 474 L 826.5 473 L 827.5 472 Z " /><path fill="rgb(228,52,68)" stroke="rgb(228,52,68)" stroke-width="1" opacity="0.996078431372549" d="M 37.5 479 L 47.5 480 L 60 487.5 L 61 489.5 L 9.5 553 L 7 552 L 6 536.5 L 7 535.5 L 8 523.5 L 13 507.5 L 23 489.5 L 29.5 483 L 37.5 479 Z " /><path fill="rgb(228,52,68)" stroke="rgb(228,52,68)" stroke-width="1" opacity="0.996078431372549" d="M 980.5 479 L 990.5 480 Q 998 483 1002 489.5 Q 1011.4 502.1 1016 519.5 L 1019 535.5 L 1019 546.5 L 1017 549.5 Q 1019.3 550.8 1016.5 552 L 965 488.5 L 967 487.5 L 966.5 486 L 980.5 479 Z " /><path fill="rgb(228,52,68)" stroke="rgb(228,52,68)" stroke-width="1" opacity="0.996078431372549" d="M 482.5 547 L 481.5 549 L 482.5 547 Z " /><path fill="rgb(228,52,68)" stroke="rgb(228,52,68)" stroke-width="1" opacity="0.996078431372549" d="M 480.5 550 L 479.5 552 L 480.5 550 Z " /><path fill="rgb(228,52,68)" stroke="rgb(228,52,68)" stroke-width="1" opacity="0.996078431372549" d="M 545.5 553 L 547.5 556 L 545.5 553 Z " /><path fill="rgb(228,52,68)" stroke="rgb(228,52,68)" stroke-width="1" opacity="0.996078431372549" d="M 477.5 554 L 475.5 557 L 477.5 554 Z " /><path fill="rgb(228,52,68)" stroke="rgb(228,52,68)" stroke-width="1" opacity="0.996078431372549" d="M 470.5 561 L 468.5 564 L 470.5 561 Z " /><path fill="rgb(228,52,68)" stroke="rgb(228,52,68)" stroke-width="1" opacity="0.996078431372549" d="M 553.5 561 L 555.5 564 L 553.5 561 Z " /><path fill="rgb(228,52,68)" stroke="rgb(228,52,68)" stroke-width="1" opacity="0.996078431372549" d="M 558.5 565 L 559.5 567 L 558.5 565 Z " /><path fill="rgb(228,52,68)" stroke="rgb(228,52,68)" stroke-width="1" opacity="0.996078431372549" d="M 563.5 568 L 564.5 570 L 563.5 568 Z " /><path fill="rgb(228,52,68)" stroke="rgb(228,52,68)" stroke-width="1" opacity="0.996078431372549" d="M 610.5 590 L 614 591.5 L 612.5 592 L 610.5 590 Z " /><path fill="rgb(228,52,68)" stroke="rgb(228,52,68)" stroke-width="1" opacity="0.996078431372549" d="M 621.5 595 L 625 596.5 L 623.5 597 L 621.5 595 Z " /><path fill="rgb(228,52,68)" stroke="rgb(228,52,68)" stroke-width="1" opacity="0.996078431372549" d="M 623.5 600 L 625 600.5 L 621.5 602 L 621.5 601 L 623.5 600 Z " /><path fill="rgb(228,52,68)" stroke="rgb(228,52,68)" stroke-width="1" opacity="0.996078431372549" d="M 612.5 605 L 614 605.5 L 610.5 607 L 610.5 606 L 612.5 605 Z " /><path fill="rgb(228,52,68)" stroke="rgb(228,52,68)" stroke-width="1" opacity="0.996078431372549" d="M 601.5 610 L 603 610.5 L 599.5 612 L 599.5 611 L 601.5 610 Z " /><path fill="rgb(228,52,68)" stroke="rgb(228,52,68)" stroke-width="1" opacity="0.996078431372549" d="M 590.5 615 L 592 615.5 L 588.5 617 L 588.5 616 L 590.5 615 Z " /><path fill="rgb(228,52,68)" stroke="rgb(228,52,68)" stroke-width="1" opacity="0.996078431372549" d="M 459.5 627 L 460.5 629 L 459.5 627 Z " /><path fill="rgb(228,52,68)" stroke="rgb(228,52,68)" stroke-width="1" opacity="0.996078431372549" d="M 562.5 628 L 561.5 630 L 562.5 628 Z " /><path fill="rgb(228,52,68)" stroke="rgb(228,52,68)" stroke-width="1" opacity="0.996078431372549" d="M 464.5 630 L 465.5 632 L 464.5 630 Z " /><path fill="rgb(228,52,68)" stroke="rgb(228,52,68)" stroke-width="1" opacity="0.996078431372549" d="M 559.5 630 L 558.5 632 L 559.5 630 Z " /><path fill="rgb(228,52,68)" stroke="rgb(228,52,68)" stroke-width="1" opacity="0.996078431372549" d="M 556.5 632 L 554.5 635 L 556.5 632 Z " /><path fill="rgb(228,52,68)" stroke="rgb(228,52,68)" stroke-width="1" opacity="0.996078431372549" d="M 468.5 633 L 470.5 636 L 468.5 633 Z " /><path fill="rgb(228,52,68)" stroke="rgb(228,52,68)" stroke-width="1" opacity="0.996078431372549" d="M 476.5 641 L 478.5 644 L 476.5 641 Z " /><path fill="rgb(228,52,68)" stroke="rgb(228,52,68)" stroke-width="1" opacity="0.996078431372549" d="M 547.5 641 L 545.5 644 L 547.5 641 Z " /><path fill="rgb(228,52,68)" stroke="rgb(228,52,68)" stroke-width="1" opacity="0.996078431372549" d="M 479.5 645 L 480.5 647 L 479.5 645 Z " /><path fill="rgb(228,52,68)" stroke="rgb(228,52,68)" stroke-width="1" opacity="0.996078431372549" d="M 543.5 646 L 542.5 648 L 543.5 646 Z " /><path fill="rgb(228,52,68)" stroke="rgb(228,52,68)" stroke-width="1" opacity="0.996078431372549" d="M 481.5 648 L 482.5 650 L 481.5 648 Z " /><path fill="rgb(228,52,68)" stroke="rgb(228,52,68)" stroke-width="1" opacity="0.996078431372549" d="M 511 739 Q 514 738 513 741 Q 510 742 511 739 Z " /><path fill="rgb(42,33,40)" stroke="rgb(42,33,40)" stroke-width="1" opacity="0.996078431372549" d="M 381.5 235 L 624.5 235 Q 645.6 239.4 657 253.5 Q 664.4 262.1 668 274.5 L 669 279.5 L 669 297.5 Q 664.8 317.8 651.5 329 Q 641.4 338.4 625.5 342 L 381.5 342 Q 361.3 337.3 350 323.5 Q 338 310.5 337 286.5 L 340 270.5 Q 345.4 255.9 356.5 247 Q 366.3 238.3 381.5 235 Z M 470 281 L 470 297 L 486 297 L 486 281 L 470 281 Z M 521 281 L 521 297 L 537 297 L 537 281 L 521 281 Z M 487 296 L 487 313 L 503 313 L 503 296 L 487 296 Z M 504 296 L 504 313 L 520 313 L 520 296 L 504 296 Z " /><path fill="rgb(42,33,40)" stroke="rgb(42,33,40)" stroke-width="1" opacity="0.996078431372549" d="M 480.5 903 L 572.5 904 L 573.5 905 L 590.5 905 L 591.5 906 L 617.5 907 L 618.5 908 L 627.5 908 L 628.5 909 L 637.5 909 L 638.5 910 L 646.5 910 L 647.5 911 L 668.5 913 L 706.5 920 L 741.5 930 Q 758.4 935.6 769 947.5 L 771 955.5 L 764.5 966 L 747.5 976 L 724.5 984 L 689.5 992 L 684.5 992 L 665.5 996 L 651.5 997 L 650.5 998 L 623.5 1000 L 622.5 1001 L 612.5 1001 L 611.5 1002 L 582.5 1003 L 581.5 1004 L 561.5 1004 L 560.5 1005 L 463.5 1005 L 462.5 1004 L 442.5 1004 L 441.5 1003 L 425.5 1003 L 424.5 1002 L 391.5 1000 L 390.5 999 L 358.5 996 L 319.5 989 L 292.5 982 L 276.5 976 Q 264.3 971.2 256 962.5 L 253 956.5 L 253 952.5 Q 255.4 943.9 262.5 940 L 277.5 932 L 297.5 925 L 342.5 915 L 348.5 915 L 377.5 910 L 405.5 908 L 406.5 907 L 432.5 906 L 433.5 905 L 450.5 905 L 451.5 904 L 479.5 904 L 480.5 903 Z " /><path fill="rgb(191,31,56)" stroke="rgb(191,31,56)" stroke-width="1" opacity="0.9921568627450981" d="M 388.5 234 L 619 234.5 L 388.5 235 L 388.5 234 Z " /><path fill="rgb(191,31,56)" stroke="rgb(191,31,56)" stroke-width="1" opacity="0.9921568627450981" d="M 358.5 245 L 357.5 247 L 358.5 245 Z " /><path fill="rgb(191,31,56)" stroke="rgb(191,31,56)" stroke-width="1" opacity="0.9921568627450981" d="M 337.5 283 L 338 285.5 L 337 285.5 L 337.5 283 Z " /><path fill="rgb(191,31,56)" stroke="rgb(191,31,56)" stroke-width="1" opacity="0.9921568627450981" d="M 669.5 285 L 670 291.5 L 669 291.5 L 669.5 285 Z " /><path fill="rgb(191,31,56)" stroke="rgb(191,31,56)" stroke-width="1" opacity="0.9921568627450981" d="M 337.5 291 L 338 293.5 L 337 293.5 L 337.5 291 Z " /><path fill="rgb(191,31,56)" stroke="rgb(191,31,56)" stroke-width="1" opacity="0.9921568627450981" d="M 348.5 321 L 349.5 323 L 348.5 321 Z " /><path fill="rgb(191,31,56)" stroke="rgb(191,31,56)" stroke-width="1" opacity="0.9921568627450981" d="M 657.5 322 L 656.5 324 L 657.5 322 Z " /><path fill="rgb(191,31,56)" stroke="rgb(191,31,56)" stroke-width="1" opacity="0.9921568627450981" d="M 650.5 329 L 649.5 331 L 650.5 329 Z " /><path fill="rgb(191,31,56)" stroke="rgb(191,31,56)" stroke-width="1" opacity="0.9921568627450981" d="M 357.5 330 L 358.5 332 L 357.5 330 Z " /><path fill="rgb(191,31,56)" stroke="rgb(191,31,56)" stroke-width="1" opacity="0.9921568627450981" d="M 386.5 342 L 621 342.5 L 386.5 343 L 386.5 342 Z " /><path fill="rgb(191,31,56)" stroke="rgb(191,31,56)" stroke-width="1" opacity="0.9921568627450981" d="M 954.5 498 L 955 501.5 L 961 508.5 L 958.5 507 L 952 504 L 954.5 498 Z " /><path fill="rgb(191,31,56)" stroke="rgb(191,31,56)" stroke-width="1" opacity="0.9921568627450981" d="M 70.5 499 L 73 504 L 67.5 507 L 67 505.5 L 71 500.5 L 70.5 499 Z " /><path fill="rgb(191,31,56)" stroke="rgb(191,31,56)" stroke-width="1" opacity="0.9921568627450981" d="M 3.5 656 L 6 662.5 L 4 661.5 L 3.5 656 Z " /><path fill="rgb(191,31,56)" stroke="rgb(191,31,56)" stroke-width="1" opacity="0.9921568627450981" d="M 1019.5 662 L 1020 665.5 Q 1007.3 706.3 978.5 731 Q 960.4 747.4 935.5 757 L 923.5 761 L 903.5 765 L 880.5 766 L 879.5 765 L 861.5 764 L 848.5 761 L 824 752 L 824.5 750 L 829.5 753 L 1016.5 665 L 1019 665 L 1019.5 662 Z " /><path fill="rgb(191,31,56)" stroke="rgb(191,31,56)" stroke-width="1" opacity="0.9921568627450981" d="M 5 664 L 7.5 664 L 183.5 747 L 194.5 752 L 197.5 752 L 202.5 750 L 202.5 751 Q 187.5 759 168.5 763 L 157.5 764 L 156.5 765 L 134.5 766 L 133.5 765 L 121.5 765 L 105.5 762 L 84.5 755 Q 55 742 35 719.5 Q 14.1 697.1 5 664 Z " /><path fill="rgb(191,31,56)" stroke="rgb(191,31,56)" stroke-width="1" opacity="0.9921568627450981" d="M 214.5 743 L 810 743.5 L 800 752.5 L 798.5 755 Q 741.5 806.5 657.5 831 L 606.5 843 L 581.5 846 L 580.5 847 L 563.5 848 L 562.5 849 L 536.5 850 L 535.5 851 L 471.5 851 L 470.5 850 L 455.5 850 L 454.5 849 L 434.5 848 L 433.5 847 L 426.5 847 L 425.5 846 L 400.5 843 L 356.5 833 L 316.5 820 Q 253.5 796 208 754.5 L 206.5 752 L 204 750.5 Q 203.3 748.3 205.5 749 L 214.5 743 Z " /><path fill="rgb(191,31,56)" stroke="rgb(191,31,56)" stroke-width="1" opacity="0.9921568627450981" d="M 819.5 748 L 820.5 750 L 819.5 748 Z " /></svg>